_________________________  Visit us at _________________________
  
http://p2pdl.com  ____________________________  http://p2pdl.com

 
http://s12.postimage.org/7zdgthabh/Cover.jpg

Beyonce I Am World Tour 2010 BRRip 720p x264 AAC - PRiSTiNE [P2PDL]
				
Genre: Documentary | Music
Beyoncé performs in concert during her world tour,
and backstage scenes show the work that goes into the production.
Director: Ed Burke
Stars: Beyoncé Knowles, Khasan Brailsford, Madonna Grimes

Info:  
http://www.imdb.com/title/tt1780781/

General
Complete name                  : Beyonce I Am World Tour 2010 BRRip 720p x264 AAC - PRiSTiNE.mp4
Format                         : MPEG-4
Format profile                 : Base Media / Version 2
Codec ID                       : mp42
File size                      : 945 MiB
Duration                       : 1h 39mn
Overall bit rate mode          : Variable
Overall bit rate               : 1 335 Kbps

Video
Format                         : AVC
Bit rate                       : 1 250 Kbps
Width                          : 1 280 pixels
Height                         : 720 pixels
Display aspect ratio           : 16:9
Frame rate mode                : Variable
Frame rate                     : 23.976 fps
Scan type                      : Progressive
Bits/(Pixel*Frame)             : 0.057
Stream size                    : 885 MiB (94%)
Writing library                : x264 core 129

Audio
Format                         : AAC
Bit rate                       : 79.9 Kbps
Channel(s)                     : 2 channels
Channel positions              : Front: L R
Sampling rate                  : 48.0 KHz
Stream size                    : 56.6 MiB (6%)

Subtitle                       : Yes ( English)


Screens: 
http://s12.postimage.org/hqasjg8sd/image.jpg 
http://s12.postimage.org/sr5xoh119/image.jpg 
http://s12.postimage.org/n49kqzyil/image.jpg 
http://s12.postimage.org/wq357apod/image.jpg 
http://s12.postimage.org/x44h6w9rx/image.jpg


Thumbs: 
http://s12.postimage.org/mwlxuhnjx/Thumbs.jpg

----------------------------------------------------------------------------------------------------


Recommend to you to use latest version of VLC player. Install K-Lite Codec Pack or shark007 codecs
in case of any kind of problem in playback (For non-VLC Media Player users). Alternatively, install
Core AVC codecs, the fastest decoder that there is coupled with Community Center Codec Pack and play
on Windows Media Player Classic. Check sample to be sure.
Enjoy!

Greets to: VYTO, a2zRG, MusiK_KinG, Neon, Kuroyukihime, TorDigger, Ash968, StyLishSaLH and staff members at
ExtraTorrent, TPB, H33T, KAT, 1337x, PublicHD, Ahashare, BTScene, SilverTorrent, LimeTorrents, TorrentMafia,
P2PDL, and all others.

Encoder Notes: Looking For Early Access To Anything You Can Provide DVDScr, R5, DVDR, BluRay, Direct
Audio, Early Music Releases, Seedboxes, Dedicated Servers anything u can provide, Advance / Promo CDs/
DVDs. If You Got anything to offer contact me at "prg@hush.com".